<svg width="524" height="214" viewBox="0 0 524 214" fill="none" xmlns="http://www.w3.org/2000/svg">
<g filter="url(#filter0_dd_35_341)">
<path d="M163.73 166.393H166.966L165.519 163.498L146.688 125.838V30.8375V28.8375H144.688H106.473H104.473V30.8375V124.31H56.1875L72.4999 11.9505L68.6571 10.9369L9.13651 163.667L8.07407 166.393H11H104.473V202.609V204.609H106.473H144.688H146.688V202.609V166.393H163.73ZM274.194 72.6271L274.2 72.6367C274.922 73.6826 275.991 74.285 277.031 74.6485C278.075 75.0132 279.26 75.1976 280.449 75.295C282.37 75.4526 284.619 75.401 286.771 75.3516C287.253 75.3405 287.731 75.3296 288.198 75.3211C290.865 75.2729 293.237 75.3038 295.023 75.6956C296.845 76.0956 297.355 76.699 297.499 77.2518C299.651 85.4735 300.744 95.4239 300.744 107.136C300.744 117.769 299.821 126.929 298.002 134.639L298 134.647L297.998 134.655C296.262 142.293 293.723 148.529 290.432 153.423L290.426 153.433L290.419 153.443C287.218 158.329 283.299 161.94 278.668 164.341C274.019 166.663 268.708 167.849 262.689 167.852C262.652 167.825 262.556 167.743 262.421 167.543C262.105 167.071 261.772 166.249 261.47 165.012C260.87 162.559 260.547 159.183 260.254 155.537C260.213 155.024 260.173 154.507 260.132 153.987C259.891 150.896 259.643 147.731 259.222 145.122C258.976 143.597 258.655 142.152 258.196 140.965C257.766 139.855 257.063 138.561 255.789 137.901C254.409 137.186 252.976 137.476 251.877 137.949C250.772 138.426 249.669 139.225 248.634 140.107C246.699 141.753 244.586 144.056 242.607 146.213C242.461 146.372 242.316 146.53 242.171 146.688C239.992 149.06 238.03 151.151 236.428 152.353C235.77 152.848 235.326 153.07 235.073 153.155C228.537 143.343 225.117 128.109 225.117 107.136C225.117 85.8823 228.571 70.568 235.159 60.855C241.704 51.2048 250.799 46.4194 262.664 46.4194C265.297 46.4194 266.608 47.2536 267.446 48.3898C268.411 49.6977 268.958 51.6818 269.376 54.4029C269.52 55.3391 269.652 56.4014 269.791 57.5227C270.023 59.3887 270.275 61.4183 270.637 63.3024C271.241 66.4481 272.221 69.731 274.194 72.6271ZM293.045 202.09L293.055 202.087C302.693 198.507 311.084 192.723 318.215 184.769C325.371 176.788 330.951 166.399 335.009 153.683C339.085 140.911 341.096 125.379 341.096 107.136C341.096 89.0683 339.085 73.6686 335.008 60.9845C330.949 48.3568 325.37 37.9746 318.222 29.9104C311.094 21.8685 302.705 16.0378 293.065 12.4553C283.592 8.81336 273.453 7 262.664 7C251.878 7 241.699 8.76835 232.141 12.3182L232.135 12.3204C222.586 15.9016 214.242 21.6855 207.114 29.6356L207.106 29.6452C200.043 37.6251 194.51 48.0105 190.453 60.7221C186.376 73.4071 184.366 88.8949 184.366 107.136C184.366 125.204 186.377 140.646 190.453 153.416L190.454 153.42C194.512 166.043 200.043 176.422 207.098 184.485L207.106 184.494L207.114 184.503C214.239 192.45 222.577 198.275 232.12 201.945L232.13 201.949L232.141 201.953C241.699 205.503 251.878 207.272 262.664 207.272C273.445 207.272 283.577 205.55 293.045 202.09ZM511 166.393H514.236L512.789 163.498L493.959 125.838V30.8375V28.8375H491.959H453.743H451.743V30.8375V124.31H403.458L419.77 11.9505L415.927 10.9369L356.407 163.667L355.344 166.393H358.27H406.007H451.743V202.609V204.609H453.743H491.959H493.959V202.609V166.393H511Z" stroke="#FC4850" style="stroke:#FC4850;stroke:color(display-p3 0.9882 0.2824 0.3137);stroke-opacity:1;" stroke-width="4" shape-rendering="crispEdges"/>
</g>
<defs>
<filter id="filter0_dd_35_341" x="0.148438" y="0" width="523.323" height="213.272" filterUnits="userSpaceOnUse" color-interpolation-filters="sRGB">
<feFlood flood-opacity="0" result="BackgroundImageFix"/>
<feColorMatrix in="SourceAlpha" type="matrix" values="0 0 0 0 0 0 0 0 0 0 0 0 0 0 0 0 0 0 127 0" result="hardAlpha"/>
<feOffset dx="6" dy="4"/>
<feComposite in2="hardAlpha" operator="out"/>
<feColorMatrix type="matrix" values="0 0 0 0 0 0 0 0 0 0 0 0 0 0 0 0 0 0 1 0"/>
<feBlend mode="normal" in2="BackgroundImageFix" result="effect1_dropShadow_35_341"/>
<feColorMatrix in="SourceAlpha" type="matrix" values="0 0 0 0 0 0 0 0 0 0 0 0 0 0 0 0 0 0 127 0" result="hardAlpha"/>
<feOffset dx="-5" dy="-5"/>
<feComposite in2="hardAlpha" operator="out"/>
<feColorMatrix type="matrix" values="0 0 0 0 0.0666667 0 0 0 0 0.0666667 0 0 0 0 0.0666667 0 0 0 1 0"/>
<feBlend mode="normal" in2="effect1_dropShadow_35_341" result="effect2_dropShadow_35_341"/>
<feBlend mode="normal" in="SourceGraphic" in2="effect2_dropShadow_35_341" result="shape"/>
</filter>
</defs>
</svg>
