<svg width="400" height="363" viewBox="0 0 400 363" fill="none" xmlns="http://www.w3.org/2000/svg">
<g clip-path="url(#clip0_45_519)">
<path d="M281.328 354.112L274.512 354.111L271.27 327.821L281.329 327.822L281.328 354.112Z" fill="#FFB6B6"/>
<path d="M281.568 361.223L260.607 361.222V360.957C260.608 358.793 261.467 356.718 262.997 355.188C264.527 353.659 266.602 352.799 268.766 352.799L272.595 349.894L279.738 352.799H281.568L281.568 361.223Z" fill="#111111"/>
<path d="M369.697 316.738L365.295 321.941L343.129 307.438L349.626 299.758L369.697 316.738Z" fill="#FFB6B6"/>
<path d="M375.281 321.147L361.744 337.149L361.542 336.978C359.89 335.58 358.861 333.584 358.681 331.428C358.501 329.272 359.185 327.132 360.582 325.48L360.837 320.681L367.668 317.103L368.85 315.707L375.281 321.147Z" fill="#111111"/>
<path d="M38.2079 6.88412H19.6208C18.7079 6.88412 17.8324 6.52148 17.1869 5.87596C16.5414 5.23045 16.1787 4.35495 16.1787 3.44206C16.1787 2.52917 16.5414 1.65366 17.1869 1.00815C17.8324 0.362642 18.7079 0 19.6208 0H38.2079C39.1208 0 39.9963 0.362642 40.6418 1.00815C41.2873 1.65366 41.6499 2.52917 41.6499 3.44206C41.6499 4.35495 41.2873 5.23045 40.6418 5.87596C39.9963 6.52148 39.1208 6.88412 38.2079 6.88412Z" fill="#59ADFF"/>
<path d="M160.057 6.53994C161.768 6.53994 163.155 5.15299 163.155 3.44209C163.155 1.73119 161.768 0.344238 160.057 0.344238C158.346 0.344238 156.959 1.73119 156.959 3.44209C156.959 5.15299 158.346 6.53994 160.057 6.53994Z" fill="#90C418"/>
<path d="M169.695 6.53994C171.405 6.53994 172.792 5.15299 172.792 3.44209C172.792 1.73119 171.405 0.344238 169.695 0.344238C167.984 0.344238 166.597 1.73119 166.597 3.44209C166.597 5.15299 167.984 6.53994 169.695 6.53994Z" fill="#F8C822"/>
<path d="M179.332 6.53994C181.043 6.53994 182.43 5.15299 182.43 3.44209C182.43 1.73119 181.043 0.344238 179.332 0.344238C177.621 0.344238 176.234 1.73119 176.234 3.44209C176.234 5.15299 177.621 6.53994 179.332 6.53994Z" fill="#FC4850"/>
<path d="M57.8266 97.748H24.7829C22.5014 97.7454 20.3142 96.838 18.701 95.2247C17.0877 93.6115 16.1803 91.4243 16.1777 89.1428V56.0991C16.1803 53.8176 17.0877 51.6304 18.701 50.0171C20.3142 48.4039 22.5014 47.4965 24.7829 47.4939H57.8266C60.1081 47.4965 62.2953 48.4039 63.9086 50.0171C65.5218 51.6304 66.4292 53.8176 66.4318 56.0991V89.1428C66.4292 91.4243 65.5218 93.6115 63.9086 95.2247C62.2953 96.838 60.1081 97.7454 57.8266 97.748Z" fill="#F2F2F2"/>
<path d="M174.169 97.748H141.126C138.844 97.7454 136.657 96.838 135.044 95.2247C133.431 93.6115 132.523 91.4243 132.521 89.1428V56.0991C132.523 53.8176 133.431 51.6304 135.044 50.0171C136.657 48.4039 138.844 47.4965 141.126 47.4939H174.169C176.451 47.4965 178.638 48.4039 180.251 50.0171C181.865 51.6304 182.772 53.8176 182.775 56.0991V89.1428C182.772 91.4243 181.865 93.6115 180.251 95.2247C178.638 96.838 176.451 97.7454 174.169 97.748Z" fill="#F2F2F2"/>
<path d="M115.653 97.748H82.6091C80.3276 97.7454 78.1404 96.838 76.5271 95.2247C74.9139 93.6115 74.0065 91.4243 74.0039 89.1428V56.0991C74.0065 53.8176 74.9139 51.6304 76.5271 50.0171C78.1404 48.4039 80.3276 47.4965 82.6091 47.4939H115.653C117.934 47.4965 120.122 48.4039 121.735 50.0171C123.348 51.6304 124.255 53.8176 124.258 56.0991V89.1428C124.255 91.4243 123.348 93.6115 121.735 95.2247C120.122 96.838 117.934 97.7454 115.653 97.748Z" fill="#F2F2F2"/>
<path d="M24.7829 120.466C22.684 120.468 20.6717 121.303 19.1875 122.787C17.7034 124.271 16.8685 126.283 16.8662 128.382V161.426C16.8686 163.525 17.7034 165.537 19.1876 167.021C20.6718 168.506 22.684 169.34 24.7829 169.343H57.8267C59.9256 169.34 61.9379 168.506 63.4221 167.021C64.9062 165.537 65.7411 163.525 65.7434 161.426V128.382C65.7411 126.283 64.9063 124.271 63.4221 122.787C61.9379 121.303 59.9256 120.468 57.8267 120.466H24.7829Z" fill="#F2F2F2"/>
<path d="M174.169 170.031H141.126C138.844 170.029 136.657 169.121 135.044 167.508C133.431 165.895 132.523 163.708 132.521 161.426V128.382C132.523 126.101 133.431 123.914 135.044 122.301C136.657 120.687 138.844 119.78 141.126 119.777H174.169C176.451 119.78 178.638 120.687 180.251 122.301C181.865 123.914 182.772 126.101 182.775 128.382V161.426C182.772 163.708 181.865 165.895 180.251 167.508C178.638 169.121 176.451 170.029 174.169 170.031Z" fill="#F2F2F2"/>
<path d="M115.653 170.031H82.6091C80.3276 170.029 78.1404 169.121 76.5271 167.508C74.9139 165.895 74.0065 163.708 74.0039 161.426V128.382C74.0065 126.101 74.9139 123.914 76.5271 122.301C78.1404 120.687 80.3276 119.78 82.6091 119.777H115.653C117.934 119.78 120.122 120.687 121.735 122.301C123.348 123.914 124.255 126.101 124.258 128.382V161.426C124.255 163.708 123.348 165.895 121.735 167.508C120.122 169.121 117.934 170.029 115.653 170.031Z" fill="#F2F2F2"/>
<path d="M57.8266 242.315H24.7829C22.5014 242.312 20.3142 241.405 18.701 239.791C17.0877 238.178 16.1803 235.991 16.1777 233.709V200.666C16.1803 198.384 17.0877 196.197 18.701 194.584C20.3142 192.971 22.5014 192.063 24.7829 192.061H57.8266C60.1081 192.063 62.2953 192.971 63.9086 194.584C65.5218 196.197 66.4292 198.384 66.4318 200.666V233.709C66.4292 235.991 65.5218 238.178 63.9086 239.791C62.2953 241.405 60.1081 242.312 57.8266 242.315Z" fill="#F2F2F2"/>
<path d="M174.169 242.315H141.126C138.844 242.312 136.657 241.405 135.044 239.791C133.431 238.178 132.523 235.991 132.521 233.709V200.666C132.523 198.384 133.431 196.197 135.044 194.584C136.657 192.971 138.844 192.063 141.126 192.061H174.169C176.451 192.063 178.638 192.971 180.251 194.584C181.865 196.197 182.772 198.384 182.775 200.666V233.709C182.772 235.991 181.865 238.178 180.251 239.791C178.638 241.405 176.451 242.312 174.169 242.315Z" fill="#F2F2F2"/>
<path d="M115.653 242.315H82.6091C80.3276 242.312 78.1404 241.405 76.5271 239.791C74.9139 238.178 74.0065 235.991 74.0039 233.709V200.666C74.0065 198.384 74.9139 196.197 76.5271 194.584C78.1404 192.971 80.3276 192.063 82.6091 192.061H115.653C117.934 192.063 120.122 192.971 121.735 194.584C123.348 196.197 124.255 198.384 124.258 200.666V233.709C124.255 235.991 123.348 238.178 121.735 239.791C120.122 241.405 117.934 242.312 115.653 242.315Z" fill="#F2F2F2"/>
<path d="M182.337 224.072H12.4835C9.17383 224.068 6.00079 222.751 3.66049 220.411C1.32018 218.071 0.00373887 214.898 0 211.588V144.308C0.00373886 140.998 1.32018 137.825 3.66049 135.485C6.00079 133.145 9.17383 131.828 12.4835 131.824H182.337C185.647 131.828 188.82 133.145 191.16 135.485C193.5 137.825 194.817 140.998 194.821 144.308V211.588C194.817 214.898 193.5 218.071 191.16 220.411C188.82 222.751 185.647 224.068 182.337 224.072Z" fill="white"/>
<path d="M182.337 224.072H12.4835C9.17383 224.068 6.00079 222.751 3.66049 220.411C1.32018 218.071 0.00373887 214.898 0 211.588V144.308C0.00373886 140.998 1.32018 137.825 3.66049 135.485C6.00079 133.145 9.17383 131.828 12.4835 131.824H182.337C185.647 131.828 188.82 133.145 191.16 135.485C193.5 137.825 194.817 140.998 194.821 144.308V211.588C194.817 214.898 193.5 218.071 191.16 220.411C188.82 222.751 185.647 224.068 182.337 224.072ZM45.3105 133.201C33.6586 133.201 22.4839 137.83 14.2447 146.069C6.00553 154.308 1.37682 165.483 1.37682 177.135V211.588C1.37682 213.047 1.66411 214.491 2.22228 215.838C2.78044 217.186 3.59854 218.41 4.62989 219.442C5.66124 220.473 6.88564 221.291 8.23317 221.849C9.5807 222.408 11.025 222.695 12.4835 222.695H182.337C183.796 222.695 185.24 222.408 186.587 221.849C187.935 221.291 189.159 220.473 190.191 219.442C191.222 218.41 192.04 217.186 192.598 215.838C193.156 214.491 193.444 213.047 193.444 211.588V144.308C193.444 141.362 192.274 138.537 190.191 136.454C188.108 134.371 185.283 133.201 182.337 133.201H45.3105Z" fill="#111111" fill-opacity="0.5"/>
<path d="M314.604 160.738L278.064 164.977L263.661 189.651L261.596 197.912L262.531 203.592L260.219 207.55L261.596 215.123L256.089 275.014L271.234 342.479H285.346L280.872 279.833L292.575 226.137L302.901 278.456L350.656 320.045L361.779 304.098L324.93 272.949L321.488 261.935L326.126 252.622L329.749 191.028L314.604 160.738Z" fill="#111111"/>
<path d="M299.115 186.553C299.115 186.553 323.215 187.79 323.553 179.325C323.892 170.859 318.47 161.89 315.981 161.426C313.492 160.963 314.395 153.509 315.704 148.346C317.014 143.183 315.995 140.788 314.439 140.609C312.883 140.43 276.741 91.2082 276.741 91.2082L268.825 91.5524L260.908 85.7009L248.517 90.5198L245.763 101.534L238.19 108.419L242.527 138.683C242.527 138.683 247.329 150.898 253.93 163.352C255.984 167.227 258.212 171.125 260.524 174.685C265.968 183.072 271.877 189.585 277.067 189.512C291.542 189.307 299.115 186.553 299.115 186.553Z" fill="#59ADFF"/>
<path d="M218.407 153.69C217.818 153.945 217.201 154.133 216.57 154.251C214.569 154.279 216.339 152.514 212.627 155.361C209.612 157.667 208.665 155.15 208.459 156.38C208.118 158.412 206.504 156.849 205.399 156.398C204.908 156.194 204.524 156.216 204.394 156.86C204.34 157.159 204.327 157.464 204.356 157.766C204.42 158.934 203.763 158.632 202.786 157.609C201.173 155.911 198.694 152.242 197.242 149.997C196.821 149.365 196.491 148.841 196.28 148.516C196.127 148.273 196.044 148.134 196.044 148.134C196.208 147.407 196.628 146.764 197.228 146.322C198.463 145.321 199.905 144.605 201.449 144.226C202.52 143.96 203.614 143.801 204.716 143.752C205.131 143.737 205.533 143.604 205.876 143.369L205.882 143.365C206.064 143.193 206.206 142.982 206.298 142.749C206.389 142.515 206.428 142.264 206.412 142.014C206.477 140.76 208.031 140.511 209.631 140.505C211.138 140.51 212.695 140.719 213.081 140.49C213.637 140.16 225.954 122.019 233.813 110.394C235.54 107.839 238.195 106.059 241.214 105.432C244.233 104.806 247.378 105.382 249.979 107.038L255.481 110.542C257.544 111.36 259.205 112.952 260.109 114.978C260.783 116.716 260.908 118.619 260.469 120.431C259.851 122.978 258.774 125.392 257.291 127.553C249.687 139.353 225.463 151.044 218.407 153.69Z" fill="#59ADFF"/>
<path d="M318.562 131.449L321.349 135.332L321.992 136.231L323.031 137.669L344.541 167.639C345.48 168.22 346.2 169.097 346.589 170.131C346.977 171.165 347.012 172.299 346.687 173.354C346.304 174.565 345.456 175.574 344.329 176.159C343.202 176.744 341.889 176.858 340.679 176.476C340.635 176.463 340.598 176.444 340.555 176.431C339.316 176.015 338.288 175.132 337.689 173.97C337.09 172.809 336.967 171.459 337.347 170.208C337.432 169.956 337.536 169.711 337.659 169.476L336.952 168.726L334.738 166.374L333.066 164.597L329.732 161.066L328.442 159.695L324.257 155.253L320.222 150.967L315.33 145.775L311.567 141.785L312.709 140.097L318.562 131.449Z" fill="#FFB6B6"/>
<path d="M316.233 123.069C316.594 123.6 316.895 124.169 317.131 124.767C317.536 126.727 315.469 125.322 318.965 128.429C321.799 130.955 319.506 132.361 320.753 132.33C322.812 132.282 321.582 134.161 321.349 135.332C321.241 135.852 321.334 136.225 321.992 136.231C322.296 136.228 322.597 136.184 322.888 136.098C324.024 135.814 323.851 136.517 323.031 137.669C321.668 139.574 318.533 142.701 316.603 144.551C316.062 145.083 315.609 145.506 315.33 145.775C315.121 145.971 314.999 146.079 314.999 146.079C314.255 146.055 313.544 145.764 312.997 145.259C311.78 144.235 310.805 142.954 310.142 141.509C309.678 140.508 309.315 139.463 309.059 138.39C308.966 137.986 308.759 137.616 308.464 137.324L308.459 137.318C308.255 137.172 308.022 137.072 307.775 137.026C307.528 136.981 307.275 136.99 307.032 137.053C305.788 137.226 305.25 135.746 304.943 134.176C304.663 132.695 304.574 131.127 304.276 130.792C303.644 130.08 285.386 119.228 285.386 119.228L266.861 94.8086C267.275 92.6287 268.525 90.6969 270.344 89.4261C271.923 88.4364 273.768 87.954 275.63 88.0438C278.249 88.169 280.822 88.7709 283.225 89.8198C296.247 95.059 312.302 116.639 316.233 123.069Z" fill="#59ADFF"/>
<path d="M247.462 85.0385C256.227 85.0385 263.333 77.9325 263.333 69.1667C263.333 60.401 256.227 53.2949 247.462 53.2949C238.696 53.2949 231.59 60.401 231.59 69.1667C231.59 77.9325 238.696 85.0385 247.462 85.0385Z" fill="#FFB6B6"/>
<path d="M265.541 72.5109C265.541 72.5109 262.264 77.1577 260.22 78.8168C260.24 76.4005 259.841 72.3732 259.862 69.9638C259.937 68.6987 259.81 67.4296 259.483 66.2051C259.312 65.5947 258.997 65.0343 258.564 64.5708C258.132 64.1073 257.595 63.7541 256.998 63.5409C256.41 63.3726 255.783 63.3936 255.208 63.6011C254.632 63.8085 254.136 64.1918 253.79 64.6967C253.445 65.2015 253.267 65.8024 253.281 66.4141C253.296 67.0259 253.503 67.6174 253.873 68.1051C252.84 68.3185 251.945 67.3203 251.539 66.3427C251.133 65.3652 250.919 64.2362 250.121 63.534C249.711 63.2172 249.227 63.0104 248.715 62.9333C248.203 62.8562 247.68 62.9113 247.195 63.0934C246.228 63.464 245.354 64.042 244.634 64.7869C242.466 66.804 240.669 69.2547 238.184 70.8794C237.685 71.2056 237.157 71.4845 236.607 71.7124C236.168 70.0582 235.174 68.6051 233.792 67.5956C234.072 69.1728 234.055 70.7883 233.743 72.3595C232.358 72.4704 230.982 72.0495 229.895 71.1823C228.729 70.1241 227.994 68.6731 227.83 67.1069C227.737 66.3971 227.716 65.6798 227.768 64.9659C228.142 64.7578 228.495 64.5134 228.821 64.2362C229.547 63.6438 230.148 62.9139 230.59 62.0883C229.757 62.3588 228.896 62.5343 228.023 62.6115C228.03 62.5565 228.036 62.5083 228.043 62.4532C228.138 61.2684 228.531 60.1269 229.186 59.1351C229.916 58.2057 231.299 57.6756 232.325 58.2746C232.908 56.3552 233.868 54.5712 235.148 53.0267C236.428 51.4822 238.002 50.2081 239.78 49.2788C241.558 48.3496 243.503 47.7838 245.502 47.6145C247.501 47.4451 249.513 47.6757 251.422 48.2926C251.017 49.136 250.781 50.0503 250.726 50.9843C251.5 50.2681 252.363 49.655 253.294 49.16C253.75 49.4068 254.142 49.757 254.439 50.1826C254.735 50.6082 254.928 51.0973 255.002 51.6107C256.316 51.8517 258.836 52.1615 257.941 53.077C261.403 54.7852 264.102 57.7254 265.508 61.3208C266.914 64.9162 266.926 68.9073 265.541 72.5109Z" fill="#111111"/>
<path d="M85.8645 164.39L23.9833 163.668C23.8944 163.667 23.8064 163.65 23.7244 163.615C23.6423 163.581 23.5679 163.531 23.5052 163.468C23.4426 163.405 23.3929 163.33 23.3592 163.248C23.3255 163.165 23.3083 163.077 23.3086 162.988C23.3089 162.899 23.3267 162.811 23.3611 162.729C23.3954 162.647 23.4455 162.573 23.5086 162.51C23.5717 162.447 23.6466 162.398 23.7288 162.364C23.8111 162.33 23.8992 162.313 23.9881 162.313L85.8693 163.036C86.0489 163.037 86.2209 163.109 86.3474 163.236C86.474 163.363 86.5447 163.536 86.5441 163.715C86.5434 163.895 86.4715 164.067 86.344 164.194C86.2166 164.32 86.0441 164.391 85.8645 164.39Z" fill="#111111"/>
<path d="M117.531 175.405L23.9833 174.682C23.8944 174.682 23.8064 174.664 23.7244 174.63C23.6423 174.596 23.5679 174.545 23.5052 174.482C23.4426 174.419 23.3929 174.344 23.3592 174.262C23.3255 174.18 23.3083 174.092 23.3086 174.003C23.3089 173.914 23.3267 173.826 23.3611 173.744C23.3954 173.662 23.4455 173.587 23.5086 173.525C23.5717 173.462 23.6466 173.412 23.7288 173.379C23.8111 173.345 23.8992 173.328 23.9881 173.328L117.536 174.051C117.716 174.051 117.888 174.123 118.014 174.251C118.141 174.378 118.212 174.551 118.211 174.73C118.21 174.91 118.138 175.082 118.011 175.208C117.884 175.335 117.711 175.405 117.531 175.405Z" fill="#111111"/>
<path d="M155.335 183.972C163.319 183.972 169.791 177.499 169.791 169.515C169.791 161.531 163.319 155.058 155.335 155.058C147.35 155.058 140.878 161.531 140.878 169.515C140.878 177.499 147.35 183.972 155.335 183.972Z" fill="#59ADFF"/>
<path d="M160.433 173.023L155.334 160.937L150.235 173.023L154.645 171.15V178.465H156.022V171.15L160.433 173.023Z" fill="white"/>
<path d="M169.79 197.396H25.224C24.7675 197.396 24.3298 197.577 24.007 197.9C23.6843 198.223 23.5029 198.66 23.5029 199.117C23.5029 199.573 23.6843 200.011 24.007 200.334C24.3298 200.656 24.7675 200.838 25.224 200.838H169.79C170.247 200.838 170.685 200.656 171.007 200.334C171.33 200.011 171.511 199.573 171.511 199.117C171.511 198.66 171.33 198.223 171.007 197.9C170.685 197.577 170.247 197.396 169.79 197.396Z" fill="#F2F2F2"/>
<path d="M107.833 197.396V200.838H25.224C24.7675 200.838 24.3298 200.656 24.007 200.334C23.6843 200.011 23.5029 199.573 23.5029 199.117C23.5029 198.66 23.6843 198.223 24.007 197.9C24.3298 197.577 24.7675 197.396 25.224 197.396H107.833Z" fill="#59ADFF"/>
<path d="M360.943 350.283C361.263 350.298 361.579 350.214 361.85 350.042C362.121 349.871 362.332 349.62 362.456 349.325C362.579 349.029 362.609 348.703 362.541 348.39C362.473 348.077 362.31 347.793 362.075 347.575L361.968 347.15C361.982 347.115 361.996 347.081 362.01 347.047C362.333 346.286 362.873 345.637 363.563 345.181C364.253 344.726 365.062 344.485 365.889 344.488C366.716 344.491 367.524 344.738 368.21 345.199C368.897 345.659 369.432 346.312 369.749 347.076C371.015 350.125 372.626 353.178 373.023 356.401C373.198 357.826 373.124 359.27 372.805 360.67C375.778 354.185 377.322 347.137 377.332 340.003C377.332 338.213 377.233 336.424 377.034 334.645C376.869 333.187 376.641 331.739 376.349 330.301C374.755 322.501 371.334 315.189 366.367 308.968C363.962 307.656 362.018 305.638 360.796 303.187C360.353 302.306 360.04 301.366 359.866 300.395C360.137 300.431 360.889 296.3 360.684 296.046C361.062 295.473 361.739 295.188 362.152 294.628C364.205 291.845 367.033 292.33 368.51 296.113C371.664 297.705 371.695 300.346 369.759 302.885C368.528 304.5 368.359 306.687 367.278 308.416C367.389 308.558 367.505 308.696 367.616 308.839C369.648 311.451 371.419 314.257 372.904 317.216C372.543 313.901 372.974 310.549 374.161 307.434C375.365 304.53 377.62 302.085 379.607 299.575C380.132 298.901 380.846 298.398 381.657 298.129C382.469 297.86 383.341 297.838 384.165 298.065C384.989 298.292 385.728 298.759 386.287 299.405C386.846 300.052 387.2 300.85 387.306 301.698C387.31 301.735 387.314 301.772 387.318 301.809C387.023 301.975 386.734 302.152 386.452 302.339C386.097 302.576 385.821 302.915 385.662 303.311C385.503 303.707 385.468 304.142 385.56 304.559C385.652 304.976 385.868 305.355 386.18 305.647C386.491 305.939 386.884 306.13 387.306 306.195L387.349 306.202C387.244 307.265 387.058 308.319 386.793 309.354C389.342 319.21 383.84 322.799 375.984 322.96C375.811 323.049 375.642 323.138 375.468 323.223C376.96 327.45 377.896 331.853 378.252 336.322C378.453 338.958 378.442 341.606 378.216 344.24L378.23 344.147C378.799 341.218 380.362 338.575 382.654 336.664C386.058 333.867 390.868 332.837 394.541 330.589C394.932 330.339 395.386 330.205 395.85 330.204C396.313 330.202 396.768 330.334 397.16 330.583C397.551 330.831 397.863 331.187 398.06 331.607C398.256 332.028 398.328 332.495 398.267 332.955L398.252 333.053C397.704 333.276 397.171 333.533 396.655 333.823C396.36 333.989 396.071 334.166 395.789 334.353C395.434 334.59 395.159 334.929 395 335.325C394.841 335.721 394.805 336.156 394.897 336.573C394.99 336.99 395.206 337.369 395.517 337.661C395.829 337.953 396.221 338.144 396.643 338.209L396.686 338.216C396.718 338.22 396.744 338.225 396.775 338.229C395.84 340.463 394.527 342.519 392.894 344.307C391.3 352.91 384.457 353.727 377.136 351.221H377.131C376.328 354.712 375.164 358.109 373.659 361.359H361.253C361.209 361.221 361.169 361.079 361.129 360.941C362.277 361.013 363.43 360.945 364.562 360.737C363.641 359.607 362.721 358.469 361.8 357.339C361.78 357.318 361.761 357.296 361.743 357.273C361.276 356.695 360.804 356.121 360.337 355.543L360.337 355.542C360.312 353.771 360.516 352.003 360.943 350.283Z" fill="#90C418"/>
<path d="M223.994 361.396C223.994 361.504 224.015 361.61 224.056 361.71C224.097 361.809 224.157 361.9 224.233 361.976C224.31 362.052 224.4 362.112 224.5 362.153C224.599 362.194 224.706 362.215 224.813 362.215H399.181C399.398 362.215 399.607 362.129 399.76 361.975C399.914 361.822 400 361.613 400 361.396C400 361.179 399.914 360.97 399.76 360.817C399.607 360.663 399.398 360.577 399.181 360.577H224.813C224.706 360.576 224.599 360.597 224.5 360.638C224.4 360.679 224.31 360.74 224.233 360.816C224.157 360.892 224.097 360.982 224.056 361.082C224.015 361.182 223.994 361.288 223.994 361.396Z" fill="#111111" fill-opacity="0.5"/>
<path d="M209.738 154.395L205.399 156.398L204.395 156.86L202.786 157.609L169.294 173.073C168.546 173.886 167.549 174.428 166.461 174.614C165.372 174.8 164.252 174.62 163.276 174.102C162.16 173.497 161.33 172.473 160.968 171.257C160.605 170.04 160.741 168.729 161.345 167.612C161.366 167.572 161.392 167.539 161.413 167.499C162.056 166.361 163.116 165.518 164.37 165.149C165.624 164.78 166.973 164.915 168.129 165.524C168.361 165.655 168.582 165.803 168.79 165.969L169.659 165.416L172.387 163.686L174.448 162.38L178.545 159.772L180.134 158.764L185.288 155.493L190.258 152.34L196.281 148.516L200.909 145.574L202.351 147.014L209.738 154.395Z" fill="#FFB6B6"/>
</g>
<defs>
<clipPath id="clip0_45_519">
<rect width="400" height="362.215" fill="white"/>
</clipPath>
</defs>
</svg>
